<svg width="25" height="30" viewBox="0 0 25 30" fill="none" xmlns="http://www.w3.org/2000/svg">
<path d="M20.9746 7.87999L23.9074 4.97999L23.2804 4.35999C18.1429 -0.720012 9.7895 -0.720012 4.65205 4.35999C-0.262917 9.21999 -0.465179 17.02 4.04526 22.14L1.09224 25.02L1.71925 25.64C6.8567 30.72 15.2101 30.72 20.3476 25.64C25.2828 20.78 25.485 12.98 20.9746 7.87999ZM5.90607 5.61999C10.1131 1.43999 16.8687 1.23999 21.3184 4.99999L19.6397 6.65999C16.0799 3.77999 10.8413 3.97999 7.52417 7.25999C4.20707 10.54 4.00481 15.74 6.91738 19.24L5.27906 20.86C1.47654 16.44 1.6788 9.77999 5.90607 5.61999ZM19.0733 24.38C14.8461 28.56 8.11073 28.76 3.64074 24.98L5.31951 23.32C8.87932 26.2 14.1179 26 17.435 22.72C20.7521 19.44 20.9544 14.24 18.0418 10.74L19.6801 9.11999C23.5029 13.56 23.3006 20.22 19.0733 24.38Z" fill="#00A699"/>
</svg>
